<?xml version="1.0" encoding="utf-8"?>
<svg viewBox="95.892 7.251 243.163 243.163" xmlns="http://www.w3.org/2000/svg">
  <defs>
    <clipPath id="border_clip">
      <rect height="250" width="400" x="0" y="0"/>
    </clipPath>
  </defs>
  <polyline clip-path="url(#border_clip)" fill="none" points="200.5,126.5 201.0,126.36602540378443 201.36602540378445,126.0 201.5,125.5 201.36602540378445,125.0 201.0,124.63397459621557 200.5,124.5 200.0,124.63397459621557 199.63397459621555,125.0 199.5,125.5 199.63397459621555,126.0 200.0,126.36602540378443 200.5,126.5" stroke="#cdcdff" stroke-linecap="round" stroke-width="1"/>
  <polyline clip-path="url(#border_clip)" fill="none" points="200.52777777777777,126.47222222222223 201.02777777777777,126.33824762600666 201.39380318156222,125.97222222222223 201.52777777777777,125.47222222222223 201.39380318156222,124.97222222222223 201.02777777777777,124.60619681843778 200.52777777777777,124.47222222222223 200.02777777777777,124.60619681843778 199.66175237399335,124.97222222222221 199.52777777777777,125.47222222222221 199.66175237399335,125.97222222222221 200.02777777777777,126.33824762600666 200.52777777777777,126.47222222222223" stroke="#cacaff" stroke-linecap="round" stroke-width="1"/>
  <polyline clip-path="url(#border_clip)" fill="none" points="200.5,126.5 201.0,126.36602540378443 201.36602540378445,126.0 201.5,125.5 201.36602540378445,125.0 201.0,124.63397459621557 200.5,124.5 200.0,124.63397459621555 199.63397459621555,125.0 199.5,125.5 199.63397459621555,126.0 200.0,126.36602540378443 200.5,126.5" stroke="#c7c7ff" stroke-linecap="round" stroke-width="1"/>
  <polyline clip-path="url(#border_clip)" fill="none" points="200.52777777777777,126.8187958125022 201.20106457291777,126.6383891594699 201.69394471502545,126.14550901736222 201.87435136805775,125.47222222222223 201.69394471502545,124.79893542708224 201.20106457291777,124.30605528497455 200.5277777777778,124.12564863194224 199.8544909826378,124.30605528497455 199.36161084053012,124.79893542708223 199.1812041874978,125.47222222222221 199.3616108405301,126.1455090173622 199.8544909826378,126.6383891594699 200.52777777777777,126.8187958125022" stroke="#c4c4ff" stroke-linecap="round" stroke-width="1"/>
  <polyline clip-path="url(#border_clip)" fill="none" points="200.49037295582556,127.40550677878848 201.43831282313258,127.1515070568703 202.1322529685214,126.45756691148146 202.3862526904396,125.50962704417445 202.1322529685214,124.56168717686744 201.43831282313258,123.8677470314786 200.49037295582556,123.61374730956041 199.54243308851855,123.86774703147859 198.8484929431297,124.56168717686742 198.59449322121154,125.50962704417444 198.8484929431297,126.45756691148145 199.54243308851855,127.15150705687029 200.49037295582556,127.40550677878848" stroke="#c1c1ff" stroke-linecap="round" stroke-width="1"/>
  <polyline clip-path="url(#border_clip)" fill="none" points="200.43770962986406,128.15131728530991 201.73222308745105,127.80445344975827 202.67987270948638,126.85680382772294 203.02673654503803,125.56229037013595 202.6798727094864,124.26777691254897 201.73222308745108,123.32012729051362 200.4377096298641,122.97326345496197 199.1431961722771,123.32012729051361 198.19554655024174,124.26777691254894 197.84868271469009,125.56229037013593 198.19554655024174,126.85680382772291 199.14319617227707,127.80445344975826 200.43770962986406,128.15131728530991" stroke="#bebeff" stroke-linecap="round" stroke-width="1"/>
  <polyline clip-path="url(#border_clip)" fill="none" points="200.50962704417444,129.02795365583736 202.20649997986996,128.57327792305952 203.44869718278764,127.33108072014186 203.90337291556548,125.63420778444635 203.44869718278767,123.93733484875084 202.20649997987,122.69513764583314 200.5096270441745,122.2404619130553 198.81275410847897,122.69513764583313 197.5705569055613,123.9373348487508 197.11588117278345,125.6342077844463 197.57055690556126,127.33108072014183 198.81275410847894,128.5732779230595 200.50962704417444,129.02795365583736" stroke="#bbbbff" stroke-linecap="round" stroke-width="2"/>
  <polyline clip-path="url(#border_clip)" fill="none" points="200.4153563255247,129.82956267180163 202.56016912852724,129.25486181332118 204.1302810730493,127.68474986879913 204.70498193152977,125.53993706579661 204.13028107304933,123.39512426279407 202.5601691285273,121.82501231827199 200.41535632552475,121.25031145979152 198.27054352252222,121.82501231827196 196.70043157800015,123.39512426279401 196.12573071951965,125.53993706579654 196.70043157800012,127.68474986879907 198.27054352252216,129.25486181332116 200.4153563255247,129.82956267180163" stroke="#b8b8ff" stroke-linecap="round" stroke-width="2"/>
  <polyline clip-path="url(#border_clip)" fill="none" points="200.53451259235817,130.92167401316277 203.16580293262453,130.2166218914366 205.09204115116472,128.29038367289644 205.79709327289092,125.65909333263009 205.09204115116478,123.02780299236372 203.16580293262462,121.10156477382353 200.53451259235825,120.39651265209733 197.9032222520919,121.10156477382348 195.9769840335517,123.02780299236365 195.27193191182548,125.65909333263 195.97698403355164,128.29038367289635 197.9032222520918,130.21662189143655 200.53451259235817,130.92167401316277" stroke="#b6b6ff" stroke-linecap="round" stroke-width="2"/>
  <polyline clip-path="url(#border_clip)" fill="none" points="200.3883297956767,132.10757758068414 203.31715531733465,131.38568692491242 205.5750222081546,129.38539140710895 206.64468037369542,126.56493462422833 206.28108401901005,123.57044923503956 204.56752868714585,121.08793575474479 201.8965692540525,119.68610810414893 198.88009033730114,119.6861081041489 196.20913090420777,121.08793575474472 194.4955755723435,123.57044923503945 194.13197921765808,126.56493462422821 195.20163738319886,129.38539140710887 197.45950427401877,131.38568692491236 200.3883297956767,132.10757758068416" stroke="#b3b3ff" stroke-linecap="round" stroke-width="2"/>
  <polyline clip-path="url(#border_clip)" fill="none" points="200.21326586647191,133.38125379855705 203.65264197576596,132.53352372497505 206.30409846739616,130.18453824783174 207.56021861264463,126.87242163159688 207.13324042412376,123.35593987771766 205.12097945917867,120.44067657780865 201.9844204545048,118.7944834211477 198.44211127843928,118.79448342114766 195.3055522737654,120.44067657780856 193.29329130882024,123.35593987771753 192.86631312029928,126.87242163159675 194.12243326554773,130.18453824783163 196.77388975717787,132.53352372497497 200.21326586647191,133.38125379855705" stroke="#b0b0ff" stroke-linecap="round" stroke-width="2"/>
  <polyline clip-path="url(#border_clip)" fill="none" points="200.41884680369526,134.73812728227742 204.39325523714777,133.75852358478383 207.4571745953102,131.0441278938944 208.90869787745856,127.21677555037769 208.4152985924045,123.15326685153752 206.09000857024796,119.7845026696897 202.46552373228243,117.88222628088616 198.3721698751084,117.88222628088612 194.74768503714282,119.7845026696896 192.42239501498622,123.15326685153738 191.9289957299321,127.21677555037753 193.38051901208038,131.04412789389426 196.44443837024278,133.75852358478375 200.41884680369526,134.73812728227742" stroke="#adadff" stroke-linecap="round" stroke-width="2"/>
  <polyline clip-path="url(#border_clip)" fill="none" points="200.1812855179581,135.69951363293944 204.71287270011243,134.582577708139 208.2063278703809,131.48764649357227 209.86134254995378,127.12373143253205 209.2987728208299,122.49055287462511 206.6474966282514,118.64951619161342 202.51488939659615,116.4805565980649 197.84768163932037,116.48055659806485 193.71507440766513,118.6495161916133 191.06379821508654,122.49055287462495 190.5012284859626,127.12373143253188 192.1562431655354,131.48764649357213 195.6496983358038,134.58257770813893 200.18128551795812,135.69951363293947" stroke="#aaaaff" stroke-linecap="round" stroke-width="2"/>
  <polyline clip-path="url(#border_clip)" fill="none" points="200.45215090470634,137.2128323445817 205.56113493712175,135.9535808780075 209.49971229764284,132.4643058136517 211.36560237797693,127.54435801843522 210.73135224713255,122.32083824044369 207.74226096654348,117.99039191057757 203.0830933261377,115.5450720954735 197.82120848327537,115.54507209547344 193.16204084286957,117.99039191057743 190.17294956228042,122.3208382404435 189.53869943143593,127.54435801843502 191.40458951176993,132.46430581365155 195.343166872291,135.95358087800741 200.45215090470634,137.2128323445817" stroke="#a7a7ff" stroke-linecap="round" stroke-width="2"/>
  <polyline clip-path="url(#border_clip)" fill="none" points="200.75752888381277,138.80068500241887 206.08392121182288,137.58497071150887 210.35535621535558,134.17861496385078 212.72582380624874,129.25628829148 212.72582380624877,123.79291786023448 210.35535621535573,118.87059118786364 206.08392121182308,115.46423544020547 200.757528883813,114.24852114929537 195.43113655580288,115.46423544020539 191.15970155227018,118.87059118786347 188.78923396137702,123.79291786023427 188.78923396137696,129.25628829147976 191.15970155227004,134.1786149638506 195.43113655580268,137.5849707115088 200.75752888381277,138.8006850024189" stroke="#a4a4ff" stroke-linecap="round" stroke-width="2"/>
  <polyline clip-path="url(#border_clip)" fill="none" points="201.0985311595506,139.7792113914887 206.99744551852024,138.43282268306757 211.72800754325903,134.6603253538808 214.35327140823154,129.2089087666173 214.3532714082316,123.15829283362153 211.72800754325917,117.70687624635798 206.99744551852046,113.93437891717112 201.09853115955084,112.58799020874989 195.1996168005812,113.93437891717102 190.4690547758424,117.70687624635778 187.84379091086987,123.15829283362129 187.8437909108698,129.20890876661704 190.46905477584224,134.6603253538806 195.19961680058097,138.43282268306746 201.0985311595506,139.7792113914887" stroke="#a1a1ff" stroke-linecap="round" stroke-width="3"/>
  <polyline clip-path="url(#border_clip)" fill="none" points="201.47618700931085,141.51089234180006 207.96259084176663,140.0304129947828 213.16428284468208,135.88220204529543 216.05100412231388,129.8878635463525 216.05100412231397,123.23464975340687 213.16428284468225,117.24031125446388 207.96259084176688,113.09210030497637 201.47618700931113,111.61162095795902 194.98978317685533,113.09210030497624 189.78809117393988,117.24031125446365 186.90136989630807,123.23464975340659 186.901369896308,129.8878635463522 189.7880911739397,135.8822020452952 194.98978317685507,140.0304129947827 201.47618700931085,141.51089234180006" stroke="#9e9eff" stroke-linecap="round" stroke-width="3"/>
  <polyline clip-path="url(#border_clip)" fill="none" points="201.89145466741974,143.31245436102884 208.97934908079583,141.69468871400943 214.66339907828245,137.16181009993684 217.81780884757887,130.61161072043615 217.81780884757893,123.34143789554099 214.66339907828262,116.79123851604024 208.9793490807961,112.25835990196755 201.89145466742005,110.640594254948 194.80356025404396,112.25835990196742 189.11951025655736,116.79123851604 185.9651004872609,123.3414378955407 185.96510048726086,130.61161072043586 189.11951025655716,137.1618100999366 194.80356025404367,141.6946887140093 201.89145466741974,143.31245436102884" stroke="#9b9bff" stroke-linecap="round" stroke-width="3"/>
  <polyline clip-path="url(#border_clip)" fill="none" points="202.34523050222643,145.1828368678636 210.04776751532094,143.42478305837628 216.22472260755498,138.4988257479981 219.65267406752878,131.38061119495129 219.65267406752886,123.47998909063924 216.22472260755518,116.36177453759234 210.04776751532125,111.43581722721403 202.34523050222677,109.67776341772654 194.64269348913226,111.43581722721389 188.46573839689822,116.36177453759207 185.03778693692442,123.4799890906389 185.03778693692433,131.38061119495094 188.46573839689802,138.4988257479978 194.64269348913194,143.42478305837614 202.34523050222643,145.18283686786364" stroke="#9898ff" stroke-linecap="round" stroke-width="3"/>
  <polyline clip-path="url(#border_clip)" fill="none" points="202.8383565223672,146.13489672667092 210.64677376902537,144.47516640463644 217.10504473649266,139.78295788938922 221.09647570294413,132.86959666059167 221.93091199326838,124.93046568061791 219.46407199225266,117.33831282064614 214.12249474661039,111.40589028270887 206.829787488819,108.1589678179823 198.8469255559162,108.15896781798223 191.55421829812474,111.40589028270864 186.21264105248235,117.3383128206458 183.74580105146646,124.93046568061754 184.58023734179056,132.86959666059133 188.57166830824193,139.78295788938894 195.0299392757091,144.4751664046363 202.8383565223672,146.13489672667092" stroke="#9595ff" stroke-linecap="round" stroke-width="3"/>
  <polyline clip-path="url(#border_clip)" fill="none" points="203.371626594701,148.14038628858793 211.778849454423,146.3533759043319 218.7323871044772,141.30133508148117 223.02990971426277,133.8578075746567 223.92833658278062,125.30984691211289 221.2723215425121,117.13547314818831 215.5211137230588,110.74810976851981 207.66914920448693,107.25218992882671 199.0741039849159,107.25218992882662 191.22213946634398,110.74810976851958 185.47093164689053,117.13547314818796 182.81491660662184,125.30984691211249 183.7133434751395,133.8578075746563 188.01086608492497,141.3013350814809 194.96440373497904,146.35337590433173 203.371626594701,148.14038628858793" stroke="#9292ff" stroke-linecap="round" stroke-width="3"/>
  <polyline clip-path="url(#border_clip)" fill="none" points="202.79746153654546,150.21241748352048 211.81392144051705,148.29590976789675 219.2713535151253,142.87776821598274 223.88030000602686,134.8948387243751 224.8438321939805,125.7274423248105 221.9953466102739,116.96070513795537 215.82737229000907,110.11047566672403 207.40640802744738,106.36122081907342 198.1885150456444,106.36122081907334 189.76755078308264,110.11047566672379 183.59957646281768,116.960705137955 180.7510908791109,125.72744232481006 181.71462306706437,134.8948387243747 186.32356955796578,142.8777682159824 193.78100163257392,148.29590976789655 202.79746153654546,150.21241748352045" stroke="#9090ff" stroke-linecap="round" stroke-width="3"/>
  <polyline clip-path="url(#border_clip)" fill="none" points="202.18168908570166,152.35045115322598 211.81730840771755,150.30233704057716 219.78684161210347,144.51213223924006 224.7122840068849,135.9810157617251 225.74198185576466,126.18409514975475 222.69789104616024,116.81534697936833 216.10636253374898,109.49471292163079 207.10713148048345,105.48799711099753 197.25624669092076,105.48799711099744 188.25701563765517,109.49471292163054 181.66548712524377,116.81534697936794 178.62139631563915,126.1840951497543 179.65109416451875,135.98101576172468 184.5765365593,144.51213223923972 192.5460697636858,150.30233704057696 202.18168908570166,152.35045115322598" stroke="#8d8dff" stroke-linecap="round" stroke-width="3"/>
  <polyline clip-path="url(#border_clip)" fill="none" points="202.83974657040272,153.23791489520409 212.4969890280234,151.3169699355995 220.68400386459223,145.84658151347594 226.15439228671593,137.65956667690722 228.0753372463207,128.0023242192866 226.1543922867161,118.34508176166592 220.68400386459257,110.15806692509709 212.49698902802382,104.6876785029734 202.8397465704032,102.76673354336864 193.18250411278254,104.68767850297321 184.9954892762137,110.15806692509676 179.52510085409,118.3450817616655 177.60415589448525,128.00232421928612 179.52510085408983,137.6595666769068 184.9954892762134,145.84658151347563 193.1825041127821,151.3169699355993 202.83974657040272,153.23791489520409" stroke="#8a8aff" stroke-linecap="round" stroke-width="3"/>
  <polyline clip-path="url(#border_clip)" fill="none" points="202.13875794051614,155.50665063305524 212.39595124249314,153.46636803068833 221.09157984593298,147.6561347545899 226.90181312203157,138.96050615115016 228.94209572439868,128.70331284917322 226.90181312203177,118.44611954719622 221.09157984593332,109.75049094375635 212.3959512424936,103.94025766765776 202.13875794051663,101.89997506529066 191.88156463853963,103.94025766765758 183.1859360350998,109.750490943756 177.3757027590012,118.44611954719575 175.3354201566341,128.7033128491727 177.375702759001,138.9605061511497 183.18593603509942,147.65613475458957 191.88156463853917,153.46636803068816 202.13875794051614,155.50665063305524" stroke="#8787ff" stroke-linecap="round" stroke-width="3"/>
  <polyline clip-path="url(#border_clip)" fill="none" points="202.88329510117953,157.84021470889263 213.74858267717582,155.67897463489052 222.95972871380383,149.52428362246076 229.11441972623376,140.31313758583286 231.27565980023607,129.4478500098366 229.11441972623396,118.58256243384032 222.95972871380422,109.3714163972123 213.7485826771763,103.21672538478238 202.88329510118004,101.05548531078007 192.01800752518378,103.21672538478218 182.80686148855574,109.37141639721192 176.65217047612583,118.58256243383984 174.49093040212352,129.4478500098361 176.6521704761256,140.31313758583238 182.80686148855537,149.52428362246042 192.0180075251833,155.67897463489032 202.88329510117953,157.84021470889263" stroke="#8484ff" stroke-linecap="round" stroke-width="3"/>
  <polyline clip-path="url(#border_clip)" fill="none" points="202.0946183039835,158.66097582413073 212.9325194679764,156.6350209799263 222.30670202488858,150.83077287522596 228.9511306762703,142.03212737901856 231.96843851470237,131.42739032054465 230.95112139712458,120.44879020242772 226.03657363741456,110.57904780514282 217.8885321429704,103.15112652957386 207.60743506747335,99.1682083035191 196.58180154049478,99.16820830351898 186.30070446499764,103.15112652957356 178.15266297055334,110.57904780514237 173.23811521084315,120.44879020242716 172.22079809326516,131.42739032054408 175.23810593169702,142.03212737901805 181.88253458307858,150.8307728752256 191.25671713999063,156.63502097992608 202.09461830398348,158.66097582413073" stroke="#8181ff" stroke-linecap="round" stroke-width="4"/>
  <polyline clip-path="url(#border_clip)" fill="none" points="202.92800170985825,159.4566406872667 214.35438298484786,157.32067984526333 224.2375681528858,151.20127066673308 231.24277829240899,141.92487327005333 234.4239209568654,130.74431652593807 233.35136520210017,119.16959657628378 228.169965626031,108.76394348802856 219.57949895253216,100.93269837045554 208.7401553072788,96.73351427112019 197.11584811243895,96.73351427112007 186.2765044671855,100.93269837045521 177.68603779368652,108.76394348802806 172.50463821761713,119.16959657628317 171.43208246285167,130.74431652593745 174.61322512730786,141.92487327005276 181.61843526683083,151.20127066673265 191.50162043486867,157.3206798452631 202.92800170985825,159.45664068726674" stroke="#7e7eff" stroke-linecap="round" stroke-width="4"/>
  <polyline clip-path="url(#border_clip)" fill="none" points="203.80663645653883,161.98319386694948 215.8283145320067,159.735952767042 226.22639836896482,153.29773183025458 233.5965691274605,143.53804846951417 236.94344440703284,131.77500200296114 235.81501015549946,119.59725703719411 230.36366767140004,108.64948550905422 221.32565096414362,100.41024462711299 209.92159427142465,95.99228952768637 197.69167864165442,95.99228952768624 186.28762194893537,100.4102446271126 177.24960524167878,108.64948550905365 171.7982627575791,119.59725703719342 170.66982850604546,131.77500200296043 174.01670378561755,143.5380484695135 181.386874544113,153.2977318302541 191.784958381071,159.73595276704174 203.8066364565388,161.98319386694948" stroke="#7b7bff" stroke-linecap="round" stroke-width="4"/>
  <polyline clip-path="url(#border_clip)" fill="none" points="204.73104671524726,164.5737063807455 217.35459034538113,162.2139571099676 228.2732544587955,155.45340651247423 236.01241296456726,145.20510440796096 239.52684962233425,132.85314078344464 238.34192028729927,120.06571677100946 232.61765623207887,108.56984484109731 223.1271510365727,99.9181061986682 211.1521500161386,95.278966088321 198.30994341435746,95.27896608832086 186.33494239392326,99.91810619866779 176.8444371984169,108.56984484109667 171.12017314319624,120.0657167710087 169.93524380816098,132.85314078344385 173.44968046592768,145.20510440796022 181.1888389716992,155.4534065124737 192.10750308511342,162.21395710996728 204.73104671524723,164.5737063807455" stroke="#7878ff" stroke-linecap="round" stroke-width="4"/>
  <polyline clip-path="url(#border_clip)" fill="none" points="203.76035583834195,167.22804517264404 216.28804732192447,165.01907515809694 227.30471432355193,158.65859949913502 235.4815842141393,148.91378543085233 239.8324058071347,136.96000134802236 239.83240580713485,124.23905003009827 235.48158421413976,112.28526594726819 227.30471432355262,102.5404518789853 216.2880473219253,96.17997622002312 203.76035583834283,93.97100620547572 191.2326643547603,96.17997622002281 180.21599735313282,102.54045187898473 172.03912746254545,112.28526594726742 167.68830586955005,124.2390500300974 167.68830586954988,136.96000134802148 172.039127462545,148.9137854308516 180.21599735313214,158.65859949913448 191.23266435475944,165.01907515809665 203.76035583834192,167.22804517264407" stroke="#7575ff" stroke-linecap="round" stroke-width="4"/>
  <polyline clip-path="url(#border_clip)" fill="none" points="204.77781471288594,169.9461027380191 217.88714520444597,167.63457407333308 229.41529696561133,160.9787925507656 237.97180475658564,150.7815436508119 242.52462745717162,138.27276608617194 242.5246274571718,124.96120304103668 237.97180475658612,112.45242547639663 229.41529696561207,102.25517657644271 217.88714520444688,95.59939505387493 204.7778147128869,93.28786638918857 191.66848422132688,95.5993950538746 180.14033246016152,102.25517657644208 171.5838246691872,112.45242547639579 167.03100196860123,124.96120304103573 167.03100196860106,138.272766086171 171.58382466918673,150.78154365081105 180.14033246016075,160.97879255076498 191.66848422132594,167.63457407333277 204.7778147128859,169.94610273801914" stroke="#7272ff" stroke-linecap="round" stroke-width="4"/>
  <polyline clip-path="url(#border_clip)" fill="none" points="205.84251243995303,172.72779406732877 219.53908932944134,170.31271801836414 231.58365690611103,163.35878368570147 240.52346256133018,152.7047381790003 245.2802337955996,139.63561662333427 245.2802337955998,125.72774795800859 240.52346256133072,112.65862640234243 231.58365690611186,102.00458089564103 219.53908932944233,95.05064656297805 205.8425124399541,92.63557051401304 192.1459355504658,95.05064656297768 180.1013679737961,102.00458089564034 171.16156231857696,112.65862640234151 166.4047910843075,125.72774795800754 166.4047910843073,139.6356166233332 171.1615623185764,152.70473817899938 180.10136797379525,163.35878368570076 192.14593555046477,170.31271801836377 205.842512439953,172.72779406732877" stroke="#6f6fff" stroke-linecap="round" stroke-width="4"/>
  <polyline clip-path="url(#border_clip)" fill="none" points="206.95490443374908,173.3482700249326 221.24415706833963,170.82868925129497 233.80991494828984,163.57384555673428 243.13656222244248,152.4587801609042 248.0991675828807,138.82413399143627 248.0991675828809,124.31444660231456 243.13656222244305,110.67980043284648 233.80991494829075,99.56473503701615 221.24415706834074,92.30989134245512 206.95490443375027,89.79031056881709 192.66565179915972,92.3098913424547 180.0998939192095,99.56473503701538 170.77324664505687,110.67980043284544 165.81064128461864,124.3144466023134 165.81064128461844,138.8241339914351 170.77324664505628,152.4587801609032 180.0998939192086,163.57384555673352 192.66565179915858,170.82868925129455 206.95490443374905,173.3482700249326" stroke="#6c6cff" stroke-linecap="round" stroke-width="4"/>
  <polyline clip-path="url(#border_clip)" fill="none" points="208.11543164841734,173.93599659099755 222.24870126467013,171.5775710183509 234.8504118177286,164.75786630595007 244.55497243348293,154.21590327800513 250.31074338744315,141.09406720400406 251.49399758675943,126.81431262882988 247.97651107885525,112.92407253392442 240.1394581062887,100.92856996285248 228.8321049630436,92.1277037485897 215.27977881385192,87.47518430496098 200.95108448298538,87.47518430496075 187.39875833379358,92.12770374858908 176.0914051905482,100.92856996285153 168.2543522179813,112.92407253392322 164.7368657100767,126.81431262882859 165.92011990939258,141.0940672040028 171.6758908633524,154.21590327800402 181.3804514791064,164.75786630594922 193.98216203216467,171.57757101835045 208.11543164841737,173.93599659099752" stroke="#6969ff" stroke-linecap="round" stroke-width="4"/>
  <polyline clip-path="url(#border_clip)" fill="none" points="206.90634182872873,174.49008703361702 221.6121151402651,172.03612749097954 234.7242897299131,164.94017345661695 244.8219580245327,153.97118165522377 250.81088098293492,140.31781254992524 252.04206587486246,125.4596205371302 248.38209471347304,111.0067212700283 240.22758216440707,98.52531064404845 228.46219619265494,89.36794316955583 214.360898927029,84.52696170360826 199.45178473043111,84.52696170360805 185.35048746480504,89.36794316955519 173.58510149305266,98.52531064404744 165.43058894398632,111.00672127002706 161.77061778259645,125.45962053712884 163.00180267452356,140.31781254992393 168.99072563292535,153.9711816552226 179.08839392754464,164.94017345661607 192.2005685171924,172.03612749097906 206.9063418287287,174.490087033617" stroke="#6666ff" stroke-linecap="round" stroke-width="5"/>
  <polyline clip-path="url(#border_clip)" fill="none" points="205.64827477953153,177.5258281135589 220.93125790526966,174.97554928857855 234.55809266941756,167.60107509597677 245.05210008315282,156.2015442412789 251.27609161189508,142.01227277453742 252.55560119832612,126.57088842840542 248.75197412511926,111.55070479455104 240.27739240501148,98.5793918318647 228.05020846406046,89.06259257051173 213.39542740657504,84.03159987881504 197.9011221524909,84.0315998788148 183.2463410950053,89.06259257051104 171.019157154054,98.57939183186365 162.54457543394585,111.55070479454972 158.7409483607385,126.57088842840399 160.02045794716906,142.01227277453603 166.24444947591093,156.20154424127767 176.73845688964582,167.60107509597586 190.3652916537935,174.97554928857804 205.64827477953153,177.52582811355887" stroke="#6464ff" stroke-linecap="round" stroke-width="5"/>
  <polyline clip-path="url(#border_clip)" fill="none" points="204.34082789614698,180.6250344661715 219.4393510454726,178.23366332743876 233.0599255513457,171.29363397996164 243.8692746810087,160.484284850299 250.80930402848622,146.86371034442607 253.20067516721946,131.76518719510054 250.8093040284867,116.66666404577495 243.86927468100959,103.04608953990181 233.05992555134694,92.23674041023882 219.439351045474,85.2967110627613 204.34082789614848,82.90533992402808 189.24230474682292,85.29671106276083 175.62173024094977,92.23674041023794 164.8123811112868,103.04608953990059 157.87235176380926,116.6666640457735 155.48098062507606,131.76518719509903 157.8723517638088,146.8637103444246 164.8123811112859,160.48428485029774 175.62173024094855,171.2936339799607 189.24230474682147,178.23366332743822 204.34082789614698,180.62503446617143" stroke="#6161ff" stroke-linecap="round" stroke-width="5"/>
  <polyline clip-path="url(#border_clip)" fill="none" points="202.98360991639498,181.07327544274165 218.64005056587058,178.59353885300038 232.76392971973922,171.39706297852072 243.97270367956776,160.18828901869256 251.16917955404782,146.06440986482414 253.64891614378956,130.40796921534863 251.1691795540483,114.75152856587307 243.97270367956867,100.62764941200443 232.76392971974047,89.41887545217591 218.6400505658721,82.22239957769582 202.98360991639657,79.74266298795408 187.32716926692103,82.22239957769534 173.2032901130524,89.41887545217497 161.99451615322386,100.62764941200315 154.79804027874377,114.75152856587155 152.31830368900205,130.40796921534704 154.7980402787433,146.0644098648226 161.99451615322292,160.18828901869125 173.20329011305108,171.39706297851978 187.3271692669195,178.59353885299984 202.98360991639498,181.0732754427416" stroke="#5e5eff" stroke-linecap="round" stroke-width="5"/>
  <polyline clip-path="url(#border_clip)" fill="none" points="204.3909795338226,184.2994381400324 220.60945815422744,181.7306834808244 235.240359086482,174.27586710680924 246.85150780785622,162.66471838543538 254.30632418187184,148.0338174531811 256.8750788410804,131.81533883277632 254.30632418187238,115.59686021237148 246.85150780785722,100.96595928011693 235.24035908648338,89.35481055874271 220.60945815422906,81.89999418472708 204.3909795338243,79.33123952551854 188.17250091341947,81.89999418472655 173.54159998116492,89.35481055874172 161.9304512597907,100.96595928011556 154.47563488577507,115.59686021236986 151.90688022656653,131.81533883277461 154.47563488577453,148.03381745317944 161.9304512597897,162.66471838543399 173.54159998116353,174.27586710680822 188.17250091341782,181.73068348082384 204.39097953382256,184.29943814003238" stroke="#5b5bff" stroke-linecap="round" stroke-width="5"/>
  <polyline clip-path="url(#border_clip)" fill="none" points="202.9330878863988,184.67332731567345 218.94297460749357,182.2602251602272 233.53031263518852,175.23533341012376 245.39895297024435,164.22284452558944 253.4943148342212,150.20126647152662 257.09708979959424,134.41647799072058 255.88715550017264,118.2710268100942 249.97201990816916,103.19950712019165 239.87726877907835,90.54108958573555 226.49986505080557,81.42053015521267 211.02844975037718,76.64823055894082 194.837726022424,76.64823055894055 179.36631072199546,81.4205301552119 165.98890699372237,90.54108958573434 155.89415586463116,103.19950712019012 149.9790202726272,118.27102681009247 148.76908597320505,134.4164779907188 152.37186093857758,150.20126647152495 160.46722280255395,164.22284452558802 172.33586313760944,175.23533341012268 186.92320116530414,182.2602251602266 202.93308788639882,184.67332731567336" stroke="#5858ff" stroke-linecap="round" stroke-width="5"/>
  <polyline clip-path="url(#border_clip)" fill="none" points="201.4243134383343,188.0265414907949 217.97785831286814,185.53149605337896 233.06054808126456,178.26805547757152 245.3322195683077,166.88160833361707 253.70248090903044,152.38389041885623 257.4275976510227,136.0630875922026 256.17657682435294,119.36937480746793 250.06057711948517,103.78606170472779 239.62303194981962,90.69779403940376 225.7913630080935,81.26752183047654 209.79457477905862,76.33316614777726 193.0540520976136,76.33316614777698 177.05726386857856,81.26752183047576 163.22559492685218,90.69779403940254 152.78804975718617,103.78606170472621 146.67205005231793,119.36937480746616 145.4210292256476,136.0630875922008 149.14614596763937,152.38389041885452 157.51640730836164,166.88160833361562 169.78807879540437,178.26805547757044 184.87076856380057,185.53149605337833 201.4243134383343,188.0265414907948" stroke="#5555ff" stroke-linecap="round" stroke-width="5"/>
  <polyline clip-path="url(#border_clip)" fill="none" points="199.86430455340712,191.44333640907425 216.96514671904538,188.865799177941 232.54650401245698,181.3622129788627 245.2239044604621,169.59930437457314 253.87090539939993,154.62225941523758 257.7191828491072,137.7618542711723 256.4268004702901,120.51620993009671 250.10859210883308,104.41767757297904 239.32595830465235,90.89668244699484 225.03698339005842,81.15462430499761 208.51130549234657,76.05712776522174 191.2173036144714,76.05712776522147 174.6916257167594,81.15462430499679 160.40265080216517,90.89668244699358 149.620016997984,104.41767757297742 143.30180863652646,120.51620993009487 142.0094262577088,137.76185427117042 145.85770370741557,154.62225941523582 154.50470464635288,169.5993043745716 167.1821050943576,181.36221297886158 182.76346238776898,188.86579917794035 199.86430455340712,191.44333640907416" stroke="#5252ff" stroke-linecap="round" stroke-width="5"/>
  <polyline clip-path="url(#border_clip)" fill="none" points="201.47589082814963,191.70058494347342 219.1275817239016,189.04002062532078 235.2108424203965,181.29473048622447 248.29660462452367,169.1529175446891 257.2221409385249,153.69343516403853 261.19437829183016,136.28992619661457 259.8603659637218,118.488768788214 253.3386368037689,101.8716738936658 242.20867506797035,87.9151433172704 227.45942669958438,77.8592760479662 210.4014271421525,72.59758002207752 192.55035451415057,72.59758002207724 175.49235495671854,77.8592760479654 160.74310658833227,87.91514331726914 149.61314485253328,101.87167389366417 143.0914156925799,118.48876878821216 141.75740336447097,136.28992619661267 145.72964071777568,153.6934351640367 154.65517703177642,169.15291754468757 167.7409392359032,181.29473048622333 183.82419993239782,189.04002062532015 201.47589082814966,191.7005849434733" stroke="#4f4fff" stroke-linecap="round" stroke-width="5"/>
  <polyline clip-path="url(#border_clip)" fill="none" points="203.13938918092387,195.24468335409443 220.54103463584647,192.74270445788056 236.5329022675817,185.4394632195682 249.81942606790528,173.9266248102374 259.3242108965145,159.13689092832573 264.2772356137275,142.26843785501146 264.2772356137278,124.68784733774136 259.3242108965153,107.81939426442696 249.81942606790653,93.02966038251498 236.53290226758332,81.51682197318375 220.5410346358483,74.2135807348709 203.1393891809258,71.71160183865649 185.7377437260032,74.21358073487038 169.74587609426797,81.51682197318273 156.4593522939444,93.02966038251354 146.95456746533515,107.81939426442523 142.00154274812218,124.68784733773947 142.00154274812192,142.26843785500955 146.95456746533435,159.13689092832396 156.45935229394314,173.92662481023595 169.74587609426635,185.43946321956716 185.73774372600136,192.74270445788 203.13938918092387,195.24468335409443" stroke="#4c4cff" stroke-linecap="round" stroke-width="5"/>
  <polyline clip-path="url(#border_clip)" fill="none" points="201.4236519376539,195.42104092778357 219.35836210314477,192.84241889689528 235.840108712856,185.31545742551668 249.53363867719003,173.4499461674954 259.32958363699504,158.20715827804366 264.43433439035545,140.8219737796148 264.43433439035573,122.70283692659821 259.32958363699584,105.3176524281692 249.53363867719136,90.07486453871718 235.8401087128577,78.20935328069544 219.35836210314673,70.68239180931633 201.42365193765593,68.10376977842748 183.48894177216505,70.68239180931577 167.00719516245385,78.20935328069436 153.31366519811982,90.07486453871566 143.51772023831484,105.31765242816736 138.41296948495443,122.7028369265962 138.41296948495412,140.8219737796128 143.51772023831398,158.2071582780418 153.31366519811849,173.4499461674938 167.00719516245215,185.31545742551555 183.4889417721631,192.84241889689466 201.4236519376539,195.4210409277835" stroke="#4949ff" stroke-linecap="round" stroke-width="5"/>
  <polyline clip-path="url(#border_clip)" fill="none" points="203.19194737028386,199.0926676052987 221.6628879139124,196.4369472854535 238.63742270560942,188.6849369920543 252.74037588799706,176.4646584960919 262.8292100677304,160.76612608451455 268.08658790017466,142.8611414905412 268.08658790017495,124.20026008093197 262.8292100677313,106.29527548695843 252.74037588799848,90.5967430753808 238.6374227056112,78.37646457941796 221.66288791391446,70.62445428601819 203.191947370286,67.96873396617241 184.72100682665746,70.6244542860176 167.74647203496045,78.37646457941679 153.6435188525728,90.5967430753792 143.55468467283944,106.2952754869565 138.29730684039524,124.20026008092987 138.29730684039492,142.8611414905391 143.55468467283856,160.76612608451262 153.6435188525714,176.46465849609027 167.74647203495866,188.6849369920531 184.7210068266554,196.43694728545287 203.19194737028386,199.0926676052987" stroke="#4646ff" stroke-linecap="round" stroke-width="6"/>
  <polyline clip-path="url(#border_clip)" fill="none" points="205.01311311527172,202.82815404853113 223.2179976172393,200.32595026767126 240.072709117501,193.00491593269692 254.327210769257,181.40801866872954 264.92431139500246,166.3953472935627 271.0780725198354,149.0803229646909 272.33209783271104,130.74712182562098 268.5933820129573,112.75543353602316 260.1392085094386,96.4396193098397 247.59658469564064,83.0097484483431 231.89573960114677,73.46185303575945 214.2011330800287,68.50405679612494 195.82509315051922,68.50405679612464 178.130486629401,73.46185303575857 162.42964153490684,83.00974844834172 149.8870177211084,96.43961930983791 141.4328442175892,112.75543353602109 137.6941283978349,130.74712182561876 138.9481537107099,149.08032296468875 145.10191483554232,166.39534729356072 155.69901546128727,181.4080186687279 169.95351711304284,193.00491593269572 186.80822861330432,200.32595026767063 205.01311311527178,202.82815404853108" stroke="#4343ff" stroke-linecap="round" stroke-width="6"/>
  <polyline clip-path="url(#border_clip)" fill="none" points="203.13877179533262,202.87888652944702 221.86303499300982,200.3052957899958 239.19860524711984,192.77539502339243 253.85978261687225,180.84764252249192 264.7592146471761,165.40666512444926 271.0885403259275,147.59764948510593 272.3783425222718,128.74140882360652 268.53296250775855,110.2364242482533 259.83759452662116,93.45512581032875 246.93713424335903,79.64210564564162 230.78834978150272,69.8218122694442 212.588922608815,64.72257191659617 193.6886209818547,64.72257191659585 175.48919380916684,69.82181226944331 159.34040934731024,79.64210564564021 146.43994906404762,93.45512581032692 137.74458108290972,110.23642424825118 133.89920106839588,128.74140882360425 135.18900326473954,147.5976494851037 141.5183289434904,165.40666512444724 152.41776097379375,180.84764252249025 167.07893834354576,192.77539502339118 184.41450859765553,200.30529578999514 203.13877179533262,202.87888652944696" stroke="#4040ff" stroke-linecap="round" stroke-width="6"/>
  <polyline clip-path="url(#border_clip)" fill="none" points="205.0665873875177,202.88667144271588 224.31306935181627,200.24130338591146 242.13212779561923,192.5013940625172 257.2022046709179,180.24097713932008 268.4056213168858,164.36935165183834 274.9114715731123,146.06364345462322 276.2372462883776,126.68150318161948 272.28461881706625,107.66041550948397 263.3467374566579,90.41108749517294 250.08648397956745,76.2128228870829 233.48731072456758,66.11864201845727 214.78030243581676,60.87718410651722 195.35287233922318,60.87718410651691 176.6458640504722,66.11864201845637 160.04669079547202,76.21282288708147 146.78643731838116,90.41108749517107 137.84855595797225,107.66041550948181 133.89592848666027,126.68150318161717 135.22170320192495,146.06364345462094 141.72755345815088,164.36935165183624 152.93097010411827,180.24097713931832 168.00104697941657,192.50139406251589 185.82010542321927,200.2413033859107 205.06658738751773,202.8866714427157" stroke="#3e3eff" stroke-linecap="round" stroke-width="6"/>
  <polyline clip-path="url(#border_clip)" fill="none" points="207.04816966040985,206.81416386466336 226.01517260687646,204.3171105550138 243.6896056469958,196.99612068254157 258.8669853774654,185.35010760854777 270.5129984514597,170.17272787807852 277.8339883239325,152.49829483795938 280.33104163358263,133.53129189149286 277.8339883239331,114.56428894502625 270.5129984514608,96.88985590490687 258.866985377467,81.71247617443726 243.6896056469978,70.06646310044297 226.01517260687862,62.74547322797017 207.0481696604121,60.24841991832005 188.0811667139455,62.745473227969576 170.40673367382612,70.06646310044184 155.2293539433565,81.71247617443564 143.5833408693622,96.88985590490489 136.26235099688938,114.56428894502405 133.7652976872393,133.53129189149058 136.2623509968888,152.4982948379572 143.58334086936105,170.17272787807656 155.22935394335485,185.35010760854618 170.4067336738241,196.9961206825405 188.08116671394328,204.3171105550133 207.0481696604098,206.8141638646634" stroke="#3b3bff" stroke-linecap="round" stroke-width="6"/>
  <polyline clip-path="url(#border_clip)" fill="none" points="209.08380499299798,206.7345400347893 228.55706096880658,204.1708372494157 246.703246730941,196.65444100139842 262.2857297077016,184.69758127360768 274.24258943549285,169.11509829684744 281.75898568351073,150.96891253471327 284.3226884688849,131.49565655890473 281.75898568351136,112.02240058309611 274.24258943549404,93.8762148209617 262.2857297077033,78.29373184420109 246.70324673094308,66.33687211640984 228.5570609688089,58.820475868391966 209.08380499300037,56.25677308301778 189.61054901719177,58.82047586839134 171.46436325505732,66.33687211640863 155.8818802782967,78.29373184419937 143.92502055050545,93.8762148209596 136.40862430248757,112.02240058309377 133.8449215171134,131.4956565589023 136.40862430248694,150.96891253471094 143.92502055050423,169.11509829684536 155.88188027829497,184.69758127360598 171.4643632550552,196.65444100139723 189.61054901718938,204.17083724941511 209.0838049929979,206.73454003478932" stroke="#3838ff" stroke-linecap="round" stroke-width="6"/>
  <polyline clip-path="url(#border_clip)" fill="none" points="206.9938360075567,206.61048386571017 226.97590766125097,203.97979422553135 245.5962341536808,196.26700245655223 261.58587100593155,183.9977225718377 273.85515089064666,168.0080857195873 281.5679426596264,149.38775922715774 284.19863229980587,129.40568757346352 281.5679426596271,109.42361591976925 273.85515089064796,90.80328942733941 261.5858710059334,74.81365257508864 245.59623415368304,62.544372690373564 226.97590766125344,54.83158092139382 206.99383600755925,52.20089128121434 187.01176435386498,54.831580921393154 168.39143786143512,62.54437269037228 152.40180100918434,74.81365257508682 140.1325211244693,90.80328942733718 132.41972935548955,109.42361591976677 129.78903971531005,129.40568757346097 132.41972935548887,149.38775922715524 140.13252112446798,168.0080857195851 152.40180100918252,183.99772257183588 168.3914378614329,196.26700245655093 187.01176435386247,203.97979422553067 206.9938360075567,206.61048386571017" stroke="#3535ff" stroke-linecap="round" stroke-width="6"/>
  <polyline clip-path="url(#border_clip)" fill="none" points="209.13841368234137,210.73068339978556 228.82978293811357,208.24308496095142 247.28387104375543,200.93659460310727 263.34113977420094,189.27030598682836 275.9926518806127,173.97725493148377 284.44346632833816,156.0183600787882 288.16258736570524,136.52204484053163 286.9163289399658,116.71333440556555 280.7829980514269,97.83688290185978 270.14797443662854,81.07876720012463 255.67949574216942,67.4919613419384 238.28666969576483,57.93017430814753 219.06235152425006,52.994208343877915 199.21447584043796,52.99420834387759 179.99015766892302,57.930174308146576 162.59733162251814,67.49196134193687 148.12885292805856,81.07876720012263 137.49382931325968,97.83688290185744 131.36049842472013,116.71333440556299 130.11423999898003,136.52204484052902 133.83336103634645,156.0183600787857 142.28417548407134,173.97725493148153 154.9356875904826,189.27030598682654 170.9929563209277,200.93659460310596 189.44704442656928,208.24308496095068 209.1384136823414,210.7306833997855" stroke="#3232ff" stroke-linecap="round" stroke-width="6"/>
  <polyline clip-path="url(#border_clip)" fill="none" points="211.33786974210636,214.9152854163266 231.52292472187494,212.36531996683226 250.4396784618254,204.87564732565718 266.8995217535229,192.91687116993558 279.868222107881,177.2404053868336 288.53090838609194,158.83125997551173 292.34327215016395,138.84614924626416 291.0657685639074,118.54081120630538 284.7786678759763,99.1911049224955 273.8770117449322,82.01284360388806 259.0457913189753,68.08540058635697 241.21690672288176,58.28388833624615 221.51061234587488,53.224171915670524 201.16512713834308,53.2241719156702 181.45883276133605,58.283888336245184 163.62994816524215,68.08540058635545 148.79872773928486,82.01284360388605 137.89707160824022,99.19110492249314 131.60997092030848,118.5408112063028 130.33246733405127,138.84614924626155 134.1448310981227,158.83125997550923 142.80751737633295,177.24040538683136 155.77621773069058,192.9168711699337 172.2360610223877,204.87564732565582 191.1528147623379,212.3653199668315 211.3378697421064,214.91528541632647" stroke="#2f2fff" stroke-linecap="round" stroke-width="6"/>
  <polyline clip-path="url(#border_clip)" fill="none" points="213.5924687451151,214.65517843659998 234.2735337211049,212.04255235257995 253.65513132501684,204.36883500594473 270.51944449886724,192.11619427954176 283.80682642333784,176.0545086522713 292.68238202454177,157.19299290284246 296.58842750204514,136.71678543359442 295.27953165306616,115.91248166604336 288.83793721757826,96.0872925187816 277.6683932644904,78.48690753787699 262.4727233190842,64.21722364136784 244.20572720979433,54.17485754869813 224.01518748347974,48.99080805470926 203.16975000675563,48.990808054708936 182.97921028044087,54.174857548697176 164.7122141711507,64.21722364136632 149.51654422574404,78.486907537875 138.34700027265563,96.08729251877924 131.90540583716717,115.9124816660408 130.5965099881875,136.7167854335918 134.50255546569028,157.19299290283996 143.37811106689358,176.05450865226908 156.66549299136366,192.11619427953994 173.5298061652137,204.36883500594345 192.91140376912537,212.04255235257924 213.59246874511507,214.6551784365999" stroke="#2c2cff" stroke-linecap="round" stroke-width="7"/>
  <polyline clip-path="url(#border_clip)" fill="none" points="211.28246718590407,214.3488434700052 231.66348006285048,211.87414046640822 250.86002255335637,204.5938521990064 267.75646138446643,192.93108255912995 281.3708369473727,177.56362932580578 290.9119312206009,159.3845930225349 295.8252504854574,139.4504731611551 295.8252504854577,118.91976833043223 290.9119312206018,98.98564846905228 281.37083694737424,80.80661216578112 267.75646138446837,65.43915893245651 250.8600225533587,53.77638929257955 231.66348006285304,46.49610102517714 211.28246718590674,44.02139802157957 190.90145430896033,46.496101025176515 171.70491181845443,53.77638929257833 154.8084729873444,65.43915893245476 141.1940974244381,80.80661216577894 131.65300315121,98.98564846904982 126.73968388635346,118.9197683304296 126.73968388635315,139.45047316115247 131.65300315120905,159.3845930225324 141.19409742443662,177.56362932580356 154.80847298734244,192.93108255912819 171.70491181845213,204.5938521990051 190.9014543089578,211.87414046640754 211.2824671859041,214.34884347000508" stroke="#2929ff" stroke-linecap="round" stroke-width="7"/>
  <polyline clip-path="url(#border_clip)" fill="none" points="213.64812615046557,213.99586035081126 234.5108038843416,211.46267264503746 254.1610186210729,204.0103291894123 271.456771305785,192.07193309741047 285.39289565994557,176.34130055559496 295.15947479184155,157.73263874877327 300.188910622398,137.32741546142435 300.1889106223983,116.31150810104016 295.15947479184246,95.9062848136911 285.39289565994704,77.29762300686912 271.456771305787,61.56699046505319 254.16101862107524,49.628594373050845 234.51080388434417,42.17625091742512 213.6481261504682,39.643063211650684 192.78544841659215,42.1762509174245 173.13523367986085,49.62859437304964 155.83948099514873,61.56699046505146 141.90335664098825,77.29762300686698 132.1367775090922,95.90628481368867 127.1073416785358,116.31150810103759 127.10734167853549,137.3274154614218 132.1367775090913,157.73263874877085 141.90335664098674,176.34130055559282 155.83948099514677,192.07193309740876 173.13523367985854,204.0103291894111 192.78544841658962,211.46267264503683 213.64812615046557,213.99586035081126" stroke="#2626ff" stroke-linecap="round" stroke-width="7"/>
  <polyline clip-path="url(#border_clip)" fill="none" points="216.0696927773984,213.5958193577957 237.41615326122965,211.00388979107362 257.5220350529675,203.37873461604397 275.21885738478295,191.16350013516816 289.4781452680827,175.06809137590392 299.4712007214919,156.02791499090932 304.61726368533715,135.14951682345503 304.61726368533743,113.646273485144 299.4712007214929,92.76787531768954 289.4781452680842,73.72769893269464 275.21885738478494,57.63229017342998 257.5220350529699,45.417055692553646 237.41615326123224,37.7919005175234 216.06969277740106,35.199970950800676 194.7232322935698,37.79190051752276 174.6173505018319,45.41705569255241 156.9205281700165,57.63229017342822 142.66124028671675,73.72769893269245 132.66818483330752,92.76787531768706 127.52212186946231,113.64627348514135 127.52212186946198,135.1495168234524 132.66818483330658,156.02791499090682 142.66124028671524,175.06809137590173 156.92052817001448,191.16350013516637 174.61735050182955,203.37873461604272 194.72323229356718,211.00388979107296 216.06969277739836,213.59581935779568" stroke="#2323ff" stroke-linecap="round" stroke-width="7"/>
  <polyline clip-path="url(#border_clip)" fill="none" points="213.59197266063453,218.10376097983277 234.63063091948092,215.6446945054905 254.53508966593927,208.40006399260042 272.2322943769109,196.7604293473152 286.7681841656766,181.35328628616926 297.35912545124916,163.00923787957936 303.4341578475604,142.71721652532466 304.66577478566177,121.57117034700703 300.9875794776279,100.71108816754959 292.59786438458036,81.26154241667794 279.94892121878206,64.27106314014883 263.72265778035825,50.65561147358157 244.79383613128596,41.149199940549124 224.18291394620962,36.264321647440184 203.001031375065,36.26432164743986 182.39010918998852,41.14919994054817 163.46128754091595,50.65561147358004 147.2350241024917,64.2710631401468 134.58608093669295,81.26154241667552 126.1963658436448,100.71108816754692 122.51817053561031,121.57117034700423 123.74978747371098,142.71721652532187 129.82481987002166,163.00923787957674 140.41576115559366,181.35328628616696 154.95165094435887,196.76042934731333 172.64885565533012,208.4000639925991 192.5533144017882,215.64469450548972 213.59197266063453,218.10376097983266" stroke="#2020ff" stroke-linecap="round" stroke-width="7"/>
  <polyline clip-path="url(#border_clip)" fill="none" points="211.05785750205754,217.60841454320865 232.5666881849595,215.09439279410833 252.915972238393,207.68785911003098 271.0086744918216,195.78810163899504 285.86941268364143,180.03663938640142 296.6970405713729,161.2826377594015 302.90783793296134,140.53712983999927 304.1669790750385,118.91851132990423 300.4065833727185,97.59224754876648 291.8293747316556,77.70804289712476 278.89775268981714,60.33785999458361 262.30886433870427,46.4181298975233 242.9570209431992,36.699268858464194 221.88548538979154,31.705223191655378 200.2302296143292,31.70522319165505 179.1586940609214,36.69926885846323 159.80685066541602,46.41812989752175 143.21796231430272,60.337859994581564 130.28634027246375,77.70804289712231 121.70913163140023,97.59224754876377 117.94873592907959,118.9185113299014 119.2078770711561,140.53712983999648 125.41867443274388,161.28263775939888 136.24630232047474,180.03663938639912 151.10704051229413,195.78810163899317 169.1997427657223,207.68785911002968 189.54902681915556,215.09439279410765 211.05785750205746,217.6084145432086" stroke="#1d1dff" stroke-linecap="round" stroke-width="7"/>
  <polyline clip-path="url(#border_clip)" fill="none" points="213.64860512513323,222.24633444739538 235.6295462262034,219.67713090451235 256.4254891029604,212.1080267038729 274.91531909208913,199.9470742121231 290.10224467296155,183.84987352583846 301.16753475652354,164.68422890062163 307.51465669022684,143.48336519906027 308.8014354877341,121.39022647094461 304.9585005710016,99.59585954370314 296.1930255560968,79.27520437964509 282.97755946993203,61.52375275847035 266.0245515099083,47.298490031868454 246.24794272327293,37.36630379550253 224.71389520869792,32.26264078022564 202.58331504157445,32.2626407802253 181.0492675269993,37.36630379550152 161.27265874036368,47.298490031866834 144.31965078033946,61.52375275846819 131.10418469417414,79.2752043796425 122.33870967926873,99.59585954370029 118.49577476253549,121.39022647094161 119.7825535600421,143.48336519905732 126.12967549374471,164.68422890061885 137.19496557730614,183.84987352583602 152.381891158178,199.94707421212112 170.87172114730632,212.10802670387147 191.66766402406307,219.67713090451156 213.64860512513317,222.2463344473953" stroke="#1a1aff" stroke-linecap="round" stroke-width="7"/>
  <polyline clip-path="url(#border_clip)" fill="none" points="211.00099160536,226.94938489925525 232.66774894548678,224.5081276516412 253.24804460008005,217.30677074099626 271.70989660918787,205.70642027306786 287.12755062309316,190.28876625916305 298.72790109102215,171.8269142500556 305.92925800166773,151.24661859546254 308.3705152492825,129.57986125533586 305.9292580016685,107.91310391520909 298.7279010910235,87.33280826061579 287.1275506230951,68.87095625150796 271.7098966091903,53.45330223760266 253.24804460008286,41.852951769673666 232.6677489454898,34.651594859028066 211.0009916053631,32.21033761141332 189.33423426523632,34.651594859027355 168.75393861064305,41.85295176967229 150.2920866015352,53.45330223760068 134.87443258762988,68.87095625150548 123.27408211970089,87.33280826061294 116.07272520905528,107.913103915206 113.63146796144053,129.57986125533267 116.07272520905457,151.24661859545947 123.2740821196995,171.82691425005277 134.8744325876279,190.28876625916058 150.2920866015327,205.7064202730659 168.75393861064015,217.30677074099492 189.33423426523322,224.5081276516405 211.0009916053599,226.94938489925528" stroke="#1717ff" stroke-linecap="round" stroke-width="7"/>
  <polyline clip-path="url(#border_clip)" fill="none" points="213.70570059546895,231.71766108188677 235.83164483455747,229.2246658964031 256.84810183960104,221.87068952839286 275.70121869928494,210.02449106047916 291.4456214105045,194.28008834926015 303.2918198784188,175.42697148957663 310.6457962464297,154.41051448453328 313.1387914319141,132.28457024544488 310.64579624643045,110.15862600635637 303.29181987842026,89.1421690013128 291.44562141050653,70.28905214162889 275.7012186992875,54.544649430409336 256.848101839604,42.698450962495 235.83164483456065,35.34447459448408 213.70570059547222,32.851479408999694 191.5797563563837,35.34447459448336 170.56329935134013,42.69845096249358 151.7101824916562,54.54464943040729 135.96577978043666,70.28905214162631 124.11958131252233,89.14216900130984 116.76560494451141,110.15862600635319 114.27260975902702,132.2845702454416 116.76560494451067,154.41051448453013 124.11958131252089,175.4269714895737 135.96577978043462,194.28008834925762 151.71018249165363,210.02449106047717 170.56329935133715,221.8706895283915 191.5797563563805,229.22466589640243 213.70570059546893,231.71766108188683" stroke="#1414ff" stroke-linecap="round" stroke-width="7"/>
  <polyline clip-path="url(#border_clip)" fill="none" points="210.9436702944566,231.02719814407016 233.53058163795686,228.4822644397352 254.98489093196596,220.97507692938262 274.23078952308856,208.88207734206657 290.30320769209186,192.80965917306378 302.3962072794086,173.5637605819416 309.9033947897619,152.1094512879327 312.4483284940976,129.52253994443254 309.9033947897626,106.9356286009323 302.39620727941,85.48131930692318 290.30320769209396,66.2354207158006 274.2307895230912,50.16300254679726 254.984890931969,38.07000295948056 233.53058163796013,30.562815449127257 210.94367029445996,28.017881744791538 188.35675895095972,30.562815449126504 166.90244965695058,38.07000295947908 147.65655106582798,50.16300254679514 131.58413289682463,66.23542071579794 119.49113330950793,85.48131930692013 111.98394579915463,106.93562860092901 109.4390120948189,129.52253994442918 111.98394579915386,152.10945128792943 119.49113330950644,173.56376058193857 131.5841328968225,192.80965917306116 147.6565510658253,208.88207734206452 166.9024496569475,220.9750769293812 188.3567589509564,228.48226443973454 210.94367029445655,231.02719814407024" stroke="#1212ff" stroke-linecap="round" stroke-width="7"/>
  <polyline clip-path="url(#border_clip)" fill="none" points="208.1240964555777,230.2870658468711 230.39161597583174,227.86532715764847 251.6179310318892,220.71334889951868 270.8105227230836,209.16554962697893 287.0719667929682,193.76189159955612 299.6418961901323,175.22263274667628 307.9325549864375,154.41464820739378 311.5562811909741,132.31089621235168 310.3436333939003,109.94492363828228 304.3513136584461,88.36253850475595 293.8595161954563,68.57290915351814 279.3588257935049,51.501376658439455 261.5272786194273,37.94618690534418 241.19865800074223,28.541165501575676 219.32350764394025,23.72608079504367 196.92468526722203,23.726080795043302 175.04953491041988,28.541165501574596 154.72091429173446,37.94618690534243 136.8893671176565,51.501376658437124 122.38867671570452,68.57290915351533 111.89687925271406,88.36253850475279 105.90455951725914,109.94492363827894 104.69191172018462,132.3108962123483 108.31563792472048,154.4146482073905 116.606296721025,175.22263274667327 129.17622611818845,193.7618915995535 145.43767018807256,209.16554962697683 164.63026187926656,220.7133488995172 185.85657693532374,227.8653271576477 208.1240964555777,230.2870658468711" stroke="#0f0fff" stroke-linecap="round" stroke-width="7"/>
  <polyline clip-path="url(#border_clip)" fill="none" points="211.00143255950326,235.2515955857445 233.71763701426767,232.78105946921136 255.3716569959753,225.4849706426166 274.95097459699605,213.70448611047144 291.54008268715484,197.9904482364309 304.36329300962524,179.07762796658636 312.8210065017031,157.85036775666578 316.5177498805723,135.30123070167986 315.2806675344721,112.48458938875388 309.1676040589879,90.46732460680485 298.46439950805114,70.27893918660443 283.6715238307063,52.86341959262239 265.48067545252553,39.03509616511353 244.74243822599666,29.440565938470527 222.42650907493703,24.528458482536777 199.5763560440763,24.528458482536408 177.26042689301653,29.440565938469447 156.52218966648735,39.03509616511178 138.33134128830613,52.86341959262006 123.53846561096071,70.27893918660162 112.83526106002334,90.46732460680168 106.72219758453838,112.48458938875052 105.48511523843744,135.30123070167645 109.18185861730593,157.8503677566625 117.63957210938312,179.07762796658335 130.46278243185287,197.99044823642828 147.05189052201118,213.70448611046936 166.63120812303157,225.4849706426151 188.28522810473893,232.7810594692106 211.00143255950326,235.25159558574447" stroke="#0c0cff" stroke-linecap="round" stroke-width="8"/>
  <polyline clip-path="url(#border_clip)" fill="none" points="213.9367462643996,234.41110925186135 237.1032766812768,231.89159723551063 259.18656588361017,224.45087076810574 279.1540238121117,212.4368499494891 296.0719943262802,196.41129704051409 309.14941192784687,177.1235490840816 317.7747911042682,155.4754797378422 321.5448187116752,132.4793286643251 320.2832124492302,109.21037032934173 314.04896362359045,86.75663536304621 303.133578780973,66.16803545692852 288.0474491850397,48.40727066001344 269.49598548866766,34.30481459453242 248.34663351582822,24.520082432353178 225.5883134589549,19.51059737443053 202.2851790698511,19.510597374430176 179.52685901297764,24.520082432352126 158.37750704013789,34.3048145945307 139.8260433437654,48.40727066001115 124.73991374783157,66.16803545692576 113.82452890521348,86.75663536304313 107.59028007957305,109.21037032933845 106.3286738171273,132.47932866432177 110.09870142453354,155.47547973783898 118.72408060095421,177.12354908407863 131.8014982025203,196.41129704051156 148.71946871668828,212.4368499494871 168.68692664518943,224.45087076810438 190.77021584752254,231.89159723550992 213.93674626439963,234.41110925186138" stroke="#0909ff" stroke-linecap="round" stroke-width="8"/>
  <polyline clip-path="url(#border_clip)" fill="none" points="216.93024961849076,239.50695891564797 239.77318837186186,237.10606930675456 261.6177810891292,230.00833087672885 281.50931424656267,218.52394885369068 298.57843239501614,203.15484584022596 312.079133164686,184.57272538716168 321.42137114838783,163.5897153252036 326.19684571720217,141.12287388171262 326.1968457172025,118.15410983563572 321.42137114838886,95.68726839214463 312.07913316468773,74.70425833018624 298.57843239501835,56.12213787712153 281.50931424656534,40.75303486365628 261.6177810891323,29.26865284061752 239.77318837186507,22.170914410591138 216.93024961849403,19.770024801697033 194.08731086512293,22.17091441059044 172.24271814785556,29.268652840616156 152.3511849904221,40.75303486365431 135.28206684196857,56.12213787711903 121.7813660722987,74.70425833018334 112.4391280885969,95.68726839214145 107.66365351978254,118.15410983563243 107.66365351978219,141.12287388170935 112.43912808859585,163.58971532520047 121.78136607229699,184.57272538715887 135.28206684196633,203.1548458402236 152.35118499041937,218.52394885368886 172.2427181478525,230.00833087672765 194.0873108651197,237.10606930675402 216.93024961849073,239.5069589156481" stroke="#0606ff" stroke-linecap="round" stroke-width="8"/>
  <polyline clip-path="url(#border_clip)" fill="none" points="213.87834775579697,238.56481090554223 237.15992899986892,236.11781811310868 259.4239934261534,228.8837850628109 279.6974945843874,217.17887371168868 297.0943831909043,201.51464485218236 310.8543317340657,182.57570045076193 320.3759644349768,161.1897632569075 325.2431402547449,138.29150134710284 325.2431402547453,114.8816786448578 320.3759644349779,91.983416735053 310.8543317340674,70.59747954119827 297.09438319090657,51.658535139777385 279.69749458439014,35.994306280270536 259.42399342615647,24.289394929147704 237.15992899987222,17.055361878849197 213.8783477558003,14.608369086414939 190.5967665117283,17.055361878848487 168.33270208544383,24.28939492914631 148.0592009272098,35.99430628026852 130.66231232069293,51.65853513977484 116.90236377753146,70.59747954119531 107.38073107662034,91.98341673504976 102.51355525685224,114.88167864485445 102.51355525685189,138.29150134709948 107.38073107661927,161.1897632569043 116.90236377752974,182.57570045075906 130.6623123206906,201.51464485217997 148.05920092720703,217.17887371168683 168.3327020854407,228.88378506280966 190.59676651172498,236.11781811310817 213.8783477557969,238.56481090554246" stroke="#0303ff" stroke-linecap="round" stroke-width="8"/>
  <polyline clip-path="url(#border_clip)" fill="none" points="216.98885389217378,243.79237029421768 239.95606373006663,241.45683332931196 261.9829932986637,234.54583959235129 282.16785751337216,223.3423259789341 299.6842856616212,208.30496565275067 313.81515311692834,190.04938991236975 323.98194050536705,169.32298417354164 329.7684183567078,146.97428992246319 330.9376875878345,123.91826532763365 327.4418781790414,101.0988267449332 319.4241089782647,79.4502046711078 307.2126283986321,59.858696237464926 291.30737588986176,43.126380101182434 272.3595143584506,29.938279250843394 251.14477148177383,20.834316084796725 228.53168132582897,16.187207924730643 205.44602645852567,16.187207924730288 182.83293630258066,20.83431608479566 161.61819342590354,29.93827925084166 142.670331894492,43.126380101180104 126.76507938572117,59.8586962374621 114.55359880608796,79.45020467110459 106.5358296053106,101.09882674492972 103.04002019651679,123.91826532763005 104.20928942764272,146.9742899224596 109.99576727898278,169.32298417353823 120.16255466742085,190.04938991236668 134.29342212272746,208.30496565274802 151.80985027097597,223.342325978932 171.9947144856841,234.5458395923498 194.0216440542809,241.45683332931117 216.9888538921737,243.79237029421762" stroke="#0000ff" stroke-linecap="round" stroke-width="8"/>
</svg>